<svg fill="none" height="44" viewBox="0 0 30 30" width="44" xmlns="http://www.w3.org/2000/svg"><path d="M14.9998 27.7813C12.4719 27.7816 10.0007 27.0322 7.89885 25.6279C5.79696 24.2236 4.15878 22.2274 3.19151 19.8919C2.22423 17.5565 1.97133 14.9866 2.46479 12.5073C2.95825 10.0281 4.1759 7.75094 5.96371 5.96382C8.3635 3.58261 11.6091 2.24932 14.9897 2.25588C18.3704 2.26245 21.6108 3.60833 24.0013 5.99885C26.3918 8.38936 27.7377 11.6297 27.7443 15.0104C27.7508 18.3911 26.4176 21.6367 24.0363 24.0364C22.8525 25.2272 21.4443 26.1713 19.8932 26.8141C18.342 27.4569 16.6788 27.7857 14.9998 27.7813Z" fill="white"></path><path d="M14.9997 2.78555C21.7487 2.78555 27.2145 8.25501 27.2145 14.9998C27.2145 21.7445 21.7487 27.2145 14.9997 27.2145C8.25075 27.2145 2.78553 21.7487 2.78553 14.9998C2.78553 8.25078 8.25498 2.78555 14.9997 2.78555ZM14.9997 1.65579C11.9211 1.6574 8.93768 2.72322 6.55493 4.6727C4.17218 6.62217 2.53661 9.33541 1.92532 12.3527C1.31403 15.3701 1.76462 18.506 3.20073 21.2291C4.63685 23.9523 6.97019 26.0952 9.80544 27.2949C13.0662 28.6726 16.7408 28.6985 20.0207 27.3669C23.3006 26.0354 25.9172 23.4554 27.2949 20.1946C28.6726 16.9338 28.6985 13.2592 27.3669 9.97932C26.0353 6.69941 23.4554 4.0828 20.1945 2.70512C18.5512 2.00932 16.7843 1.65241 14.9997 1.65579Z" fill="#0E4E97"></path><path d="M11.1866 6.96103C11.1866 6.96103 13.2059 5.04704 14.8532 5.04492C16.5311 5.04492 17.5948 5.95879 18.4928 6.73825C19.3907 7.51771 14.088 11.0361 14.088 11.0361L11.1866 6.96103Z" fill="#26282B"></path><path d="M8.59998 16.5027C8.53865 16.5025 8.47919 16.4816 8.43117 16.4435C8.04012 16.1297 6.07586 14.6972 5.89859 13.2251C5.74407 11.9376 6.89659 7.81117 11.2474 5.99507C11.2832 5.98003 11.3219 5.97293 11.3607 5.97426C11.3995 5.97558 11.4376 5.98531 11.4723 6.00276C11.507 6.02021 11.5375 6.04497 11.5617 6.07535C11.5859 6.10572 11.6032 6.14098 11.6125 6.17869C11.7866 6.9317 12.4867 8.80283 15.1415 8.80283C17.7662 8.80283 18.3795 6.94334 18.5208 6.17658C18.529 6.13714 18.546 6.10005 18.5704 6.06807C18.5949 6.03608 18.6263 6.01003 18.6623 5.99183C18.6982 5.97363 18.7378 5.96376 18.778 5.96295C18.8183 5.96213 18.8583 5.9704 18.8949 5.98713C19.7178 6.35014 21.6556 7.55505 23.2632 10.022C24.2352 11.5138 24.2501 12.698 24.1628 13.2706C23.9548 14.6496 22.0149 16.1217 21.5815 16.4985C21.5316 16.5419 21.4677 16.5656 21.4016 16.5652L8.59998 16.5027Z" fill="#F9BF13"></path><path d="M24.0342 13.2513C24.0146 14.2969 21.527 16.6517 21.527 16.6517L8.64234 16.6744C8.64234 16.6744 6.60664 14.9891 6.05684 13.4603C5.54408 12.0358 7.3951 8.20885 11.1665 6.35889C11.1665 6.35889 11.9253 9.1804 15.095 9.12219C17.8313 9.07245 18.5875 7.11877 18.9981 6.39646C18.9971 6.39646 24.1146 9.0317 24.0342 13.2513Z" fill="#26282B"></path><path d="M14.8812 6.26127C14.4023 6.26127 14.1086 6.95395 14.1086 6.95395C14.1086 6.95395 14.3838 7.64663 14.8537 7.64663C14.9806 7.65146 15.1051 7.61139 15.2054 7.53348C15.3057 7.45557 15.3753 7.3448 15.4019 7.22065L15.5707 7.50323C15.6165 7.46297 15.6596 7.41984 15.6999 7.37411C15.7612 7.28733 15.8586 7.04708 15.6422 6.95395C15.8586 6.85976 15.7612 6.6047 15.6951 6.51421C15.656 6.46964 15.6137 6.42791 15.5686 6.38933L15.4014 6.69254C15.3839 6.56882 15.3209 6.45608 15.2247 6.37633C15.1285 6.29658 15.006 6.25556 14.8812 6.26127ZM14.5987 6.87934C14.5963 6.90435 14.5867 6.92813 14.5711 6.9478C14.5555 6.96747 14.5345 6.98218 14.5106 6.99014C14.4868 6.99809 14.4612 6.99896 14.4369 6.99262C14.4126 6.98628 14.3906 6.97302 14.3737 6.95445C14.3568 6.93587 14.3457 6.91278 14.3416 6.88799C14.3376 6.86319 14.3408 6.83776 14.351 6.81478C14.3611 6.7918 14.3777 6.77227 14.3988 6.75855C14.4198 6.74483 14.4444 6.73753 14.4695 6.73752C14.4873 6.73833 14.5048 6.74265 14.5209 6.75022C14.537 6.75779 14.5515 6.76847 14.5635 6.78164C14.5755 6.79482 14.5848 6.81023 14.5908 6.82699C14.5968 6.84375 14.5995 6.86154 14.5987 6.87934Z" fill="white"></path><path d="M14.969 11.2476C14.969 11.2476 17.0857 11.0803 19.323 13.0832C21.5603 15.0861 20.8904 15.3475 22.7192 15.782C24.548 16.2164 24.8094 17.2912 24.548 18.3363C24.2802 19.4068 23.0663 19.2358 22.7192 19.7296C22.3721 20.2233 22.0805 21.5901 20.4258 21.4721C18.7711 21.3541 18.8198 22.7659 14.9976 22.7204C12.5592 22.6913 12.6465 21.443 11.2818 21.5594C9.91708 21.6758 8.58305 21.7335 8.2629 19.9338C8.2629 19.9338 6.5283 20.4408 5.70862 18.8019C4.89582 17.1763 6.17323 16.073 6.9257 15.783C7.67818 15.4931 8.78678 15.4655 9.45458 14.6506C10.1224 13.8357 12.1533 11.2476 14.969 11.2476Z" fill="#EEEEEF"></path><path d="M22.7193 19.7304C23.0674 19.2367 24.2803 19.4076 24.5481 18.3371C24.728 17.618 24.6602 16.8851 24.0046 16.3564C24.3269 17.4677 23.3558 19.1044 21.9684 18.9086C20.9555 18.7657 21.9684 19.6145 20.9524 19.8177C19.9364 20.0209 17.5207 19.2388 13.2699 20.1082C8.08833 21.1665 9.1673 19.4399 9.0366 19.2949C8.7191 18.9774 8.29577 19.5997 7.01201 19.0335C6.02829 18.6001 5.74783 17.6121 5.6748 16.8898C5.40652 17.3925 5.3282 18.0397 5.7092 18.8017C6.52888 20.4421 8.26349 19.9336 8.26349 19.9336C8.58099 21.7327 9.91819 21.6751 11.2824 21.5592C12.6466 21.4433 12.5598 22.6911 14.9982 22.7202C18.8204 22.7657 18.7717 21.356 20.4264 21.4719C22.0811 21.5878 22.3711 20.2241 22.7193 19.7304Z" fill="#BEBFC0"></path><path d="M19.9459 15.333C20.0901 15.5343 20.2751 15.7031 20.4888 15.8283C20.6928 15.9505 20.9147 16.0398 21.1465 16.0929C21.2616 16.1205 21.3782 16.141 21.4958 16.1543C21.5545 16.1622 21.6138 16.1664 21.6725 16.1712C21.7313 16.176 21.8053 16.1813 21.872 16.1908C22.1536 16.2199 22.426 16.3077 22.6716 16.4485C22.8098 16.5292 22.9283 16.6399 23.0182 16.7723C23.1187 16.923 23.1616 17.1049 23.1388 17.2846C23.1129 17.4518 23.0367 17.6072 22.9203 17.7301C22.8087 17.8547 22.6605 17.9406 22.497 17.9757C22.347 18.0084 22.1911 18.0012 22.0449 17.9547C21.8986 17.9083 21.7671 17.8243 21.6635 17.7111C21.5681 17.6014 21.5078 17.4655 21.4905 17.3211C21.4767 17.1879 21.496 17.0534 21.5466 16.9295C21.5464 17.0527 21.5697 17.1749 21.6154 17.2893C21.6578 17.3924 21.7288 17.4811 21.8202 17.5449C21.9036 17.6031 21.9998 17.6404 22.1006 17.6536C22.2014 17.6669 22.304 17.6557 22.3996 17.6211C22.4802 17.5895 22.5507 17.5366 22.6034 17.468C22.6562 17.3994 22.6893 17.3177 22.6991 17.2316C22.703 17.1574 22.6807 17.0842 22.6361 17.0247C22.58 16.95 22.5095 16.8872 22.4287 16.8401C22.2337 16.7308 22.0217 16.655 21.8016 16.6157C21.7434 16.6035 21.6873 16.5951 21.6254 16.5829C21.5635 16.5707 21.4926 16.5601 21.427 16.5448C21.2951 16.5153 21.1657 16.476 21.0396 16.4273C20.7868 16.3296 20.5551 16.1843 20.357 15.9992C20.1655 15.8119 20.0072 15.5854 19.9459 15.333Z" fill="#BEBFC0"></path><path d="M10.1901 15.1943C10.0045 15.4321 9.79584 15.651 9.56731 15.8479C9.33603 16.0502 9.08273 16.226 8.81219 16.3717C8.67053 16.4473 8.52138 16.508 8.36716 16.5527C8.328 16.5649 8.28673 16.5744 8.24598 16.5834C8.20523 16.5924 8.18089 16.5972 8.14808 16.6067C8.08585 16.623 8.02485 16.6437 7.96552 16.6686C7.7312 16.7593 7.52736 16.9145 7.37762 17.1163C7.23951 17.3126 7.20141 17.529 7.29136 17.728C7.3972 17.9592 7.56071 18.1439 7.78243 18.1894C7.90155 18.2124 8.02471 18.2025 8.13858 18.1606C8.25246 18.1187 8.35272 18.0465 8.42854 17.9518C8.511 17.8526 8.55229 17.7255 8.5439 17.5967C8.52693 17.4547 8.46756 17.321 8.37351 17.2131C8.50894 17.2954 8.61147 17.4222 8.66349 17.5719C8.68837 17.6536 8.69674 17.7395 8.68811 17.8246C8.67948 17.9096 8.65402 17.9921 8.61322 18.0672C8.5281 18.2229 8.39955 18.3505 8.24322 18.4345C8.08689 18.5185 7.90952 18.5552 7.73269 18.5402C7.54778 18.5213 7.37272 18.4476 7.22998 18.3286C7.09541 18.2158 6.98492 18.077 6.90507 17.9206C6.81425 17.7502 6.77734 17.5563 6.79924 17.3644C6.82204 17.1802 6.89023 17.0046 6.99768 16.8533C7.1991 16.5726 7.4836 16.3623 7.81101 16.2521C7.89021 16.2248 7.97118 16.2029 8.05336 16.1865L8.26926 16.1505C8.40264 16.123 8.53345 16.0842 8.66032 16.0346C8.92731 15.9291 9.18578 15.8031 9.43343 15.6579C9.68902 15.5161 9.93667 15.3557 10.1901 15.1943Z" fill="#BEBFC0"></path><path d="M17.4688 15.7388C17.4688 15.7388 19.0315 15.7388 19.6559 16.9294C20.5555 18.6423 21.6344 19.3964 23.187 18.609C23.2055 18.6 23.1801 18.6365 23.2235 18.6852C23.8082 19.3429 22.5922 19.4398 22.5922 19.4398C22.5922 19.4398 20.4295 20.6902 20.3861 20.6902C20.3427 20.6902 16.293 20.4727 16.293 20.4727L17.4688 15.7388Z" fill="#BEBFC0"></path><path d="M19.5553 18.0757C19.5553 18.0757 19.495 18.8938 20.493 19.4309C21.2714 19.85 21.8101 19.6595 21.8101 19.6595C21.8101 19.6595 21.9159 19.9045 21.3841 20.2167C20.7274 20.6035 19.7146 20.4887 18.6701 20.1987C16.7873 19.6753 19.5553 18.0757 19.5553 18.0757Z" fill="#F7F7F7"></path><path d="M18.9092 14.9843C18.9092 14.9843 19.6632 14.7234 20.1866 15.1584C20.7099 15.5934 20.5205 17.0888 19.577 16.9729L18.9092 14.9843Z" fill="#E59676"></path><path d="M11.0352 14.9843C11.0352 14.9843 10.2811 14.7234 9.7578 15.1584C9.23445 15.5934 9.42389 17.0888 10.3674 16.9729L11.0352 14.9843Z" fill="#E59676"></path><path d="M8.16553 19.2948C8.16553 19.2948 9.19581 19.2948 9.28312 18.0322C9.28312 18.0322 9.67524 19.1064 8.98203 19.5779C8.45075 19.9394 8.16553 19.2948 8.16553 19.2948Z" fill="#BEBFC0"></path><path d="M11.811 21.0154C11.811 21.0154 12.0068 24.6947 15.1855 24.8254C18.3642 24.9561 18.56 20.645 18.56 20.645L11.811 21.0154Z" fill="#E59676"></path><path d="M15.0389 11.2399C14.9791 11.2399 13.1476 11.2399 11.6565 12.3723C10.8019 14.3535 9.73664 16.8802 10.2356 19.2736C10.5002 20.5505 12.6587 23.1016 15.0362 23.1048H15.0436C17.4212 23.1016 19.5775 20.5505 19.8442 19.2736C20.3448 16.8786 19.278 14.3524 18.4239 12.3723C16.9328 11.2404 15.1008 11.2383 15.041 11.2399" fill="#F7C5A8"></path><path d="M19.8437 19.2736C20.3443 16.8786 19.2775 14.3524 18.4234 12.3723C16.9322 11.2404 15.1003 11.2383 15.0405 11.2399C14.8376 11.2421 14.635 11.2573 14.434 11.2854L14.5399 11.5886C14.5399 11.5886 17.3487 11.632 18.1758 12.612C19.0029 13.592 20.0913 17.1184 19.5908 18.7074C19.0902 20.2965 17.1746 22.0819 14.8447 22.2994C13.0492 22.4677 11.5109 21.1998 10.9034 20.6103C11.7707 21.8142 13.3477 23.1022 15.0368 23.1048H15.0442C17.4212 23.1016 19.5791 20.5505 19.8437 19.2736Z" fill="#ECAD8F"></path><path d="M14.0499 19.1959C14.0499 19.1959 15.214 19.4605 16.1866 19.0488C16.1866 19.0499 15.2728 20.3405 14.0499 19.1959Z" fill="#ECAD8F"></path><path d="M12.6672 17.2055C12.6672 17.2055 15.6966 17.6521 17.2317 17.1621C17.2317 17.1621 14.9405 19.673 12.6672 17.2055Z" fill="#E59676"></path><path d="M17.3323 16.3087C17.9557 16.3087 18.461 15.9986 18.461 15.616C18.461 15.2335 17.9557 14.9233 17.3323 14.9233C16.709 14.9233 16.2036 15.2335 16.2036 15.616C16.2036 15.9986 16.709 16.3087 17.3323 16.3087Z" fill="#F4B0A1"></path><path d="M14.1848 15.668C14.1848 15.668 14.714 15.0526 15.1659 15.2447C15.6178 15.4368 16.0697 15.8442 15.9131 16.1331C15.7565 16.4221 15.6681 16.4459 14.9997 16.5247C14.3314 16.6036 13.6525 16.294 14.1848 15.668Z" fill="#F4B0A1"></path><path d="M15.1246 15.4898C15.2102 15.4898 15.2796 15.45 15.2796 15.4009C15.2796 15.3518 15.2102 15.312 15.1246 15.312C15.039 15.312 14.9695 15.3518 14.9695 15.4009C14.9695 15.45 15.039 15.4898 15.1246 15.4898Z" fill="white"></path><path d="M14.4944 16.0474C14.4944 16.0474 14.5664 15.9379 14.6404 15.9606C14.7145 15.9834 14.6976 16.1194 14.6404 16.2072C14.5833 16.2951 14.3827 16.2046 14.4944 16.0474Z" fill="#B87D73"></path><path d="M15.3628 16.0474C15.3628 16.0474 15.2913 15.9379 15.2167 15.9606C15.1421 15.9834 15.1595 16.1194 15.2167 16.2072C15.2738 16.2951 15.4744 16.2046 15.3628 16.0474Z" fill="#B87D73"></path><path d="M13.3244 16.0527C13.3244 16.0527 13.8573 15.9564 14.2642 16.2236C14.5817 16.4353 15.2632 16.3924 15.6173 16.1924C15.9713 15.9924 16.2713 15.8918 16.9344 16.0019C17.5974 16.112 18.6944 16.385 18.543 16.7533C18.3917 17.1216 17.9313 16.9967 17.7921 17.1571C17.653 17.3174 17.4413 17.3687 17.1931 17.347C16.9449 17.3253 17.0111 17.3703 16.8719 17.5132C16.7327 17.6561 16.5269 17.7624 16.1274 17.7624C15.7279 17.7624 15.9035 17.7502 15.631 17.8868C15.3585 18.0233 15.086 18.0889 14.7711 17.9344C14.7711 17.9344 14.6769 17.8693 14.4536 17.9344C14.2303 17.9995 13.8319 18.0651 13.5138 17.8333C13.1958 17.6016 13.2932 17.6746 12.9317 17.6555C12.5703 17.6365 12.4296 17.5608 12.3327 17.3798C12.2359 17.1989 12.1269 17.2994 11.8665 17.274C11.6062 17.2486 11.2913 17.0957 11.4548 16.7634C11.6184 16.4311 12.3862 16.1527 13.3244 16.0527Z" fill="#EEEEEF"></path><path d="M11.8612 16.4248C11.8612 16.4248 11.4993 16.6576 11.6739 16.8423C11.8755 17.054 12.474 16.7116 12.5708 17.145C12.6677 17.5784 13.3932 17.1154 13.6673 17.5191C13.9414 17.9229 14.4822 17.399 14.8314 17.6017C15.1579 17.7917 15.5992 17.3223 15.9257 17.4234C16.2522 17.5244 16.6909 17.4001 16.7639 17.2276C16.8369 17.055 17.0777 17.1487 17.3746 17.1074C17.6714 17.0662 17.546 16.8243 17.9567 16.8185C18.3673 16.8127 18.4504 16.7592 18.4774 16.6703C18.5043 16.5814 18.4657 16.5359 18.3805 16.4444C18.3805 16.4444 18.6922 16.5957 18.5107 16.8677C18.3292 17.1397 17.9884 16.9699 17.7471 17.2053C17.5058 17.4408 17.2677 17.3524 17.1275 17.3641C16.9872 17.3757 17.0396 17.3937 16.8883 17.5329C16.7369 17.6721 16.5433 17.7673 16.0771 17.7763C15.6109 17.7853 15.5929 18.0885 15.0844 18.0261C14.5758 17.9636 14.6843 17.898 14.3245 17.9695C13.9646 18.0409 13.6366 18.0049 13.4736 17.8388C13.3106 17.6726 13.272 17.7022 12.9614 17.68C12.6507 17.6578 12.4883 17.6213 12.3449 17.4038C12.2015 17.1863 12.2073 17.335 11.8745 17.2905C11.5416 17.2461 11.3241 17.1138 11.3903 16.8804C11.4649 16.6084 11.8612 16.4248 11.8612 16.4248Z" fill="#BEBFC0"></path><path d="M15.9025 14.071C15.9025 14.071 16.1703 13.635 16.6963 13.7239C17.2222 13.8128 17.4006 14.2578 17.2783 14.6764C17.1561 15.095 16.7254 15.2632 16.3258 15.1563C15.9263 15.0494 15.6263 14.569 15.9025 14.071Z" fill="white"></path><path d="M16.5433 14.752C16.7713 14.752 16.9561 14.5708 16.9561 14.3472C16.9561 14.1236 16.7713 13.9424 16.5433 13.9424C16.3153 13.9424 16.1306 14.1236 16.1306 14.3472C16.1306 14.5708 16.3153 14.752 16.5433 14.752Z" fill="#26282B"></path><path d="M16.8159 14.1579C16.884 14.1579 16.9392 14.1178 16.9392 14.0684C16.9392 14.019 16.884 13.979 16.8159 13.979C16.7478 13.979 16.6926 14.019 16.6926 14.0684C16.6926 14.1178 16.7478 14.1579 16.8159 14.1579Z" fill="white"></path><path d="M15.7565 13.359C15.7565 13.359 16.5137 12.9886 17.5027 13.4066C17.5027 13.4066 17.344 12.8463 16.556 12.8627C15.8602 12.8769 15.7565 13.359 15.7565 13.359Z" fill="#26282B"></path><path d="M11.6829 14.8773C11.6165 14.6481 11.6353 14.4026 11.7358 14.1862C11.9856 13.6602 13.1693 13.0935 13.826 13.2718C14.7145 13.5131 14.514 14.6349 13.826 15.1731C13.1381 15.7112 12.1179 15.6694 11.6829 14.8773Z" fill="#26282B"></path><path d="M17.4725 11.8052C16.7555 12.1465 15.287 12.8487 13.9525 13.5059C12.2015 14.3679 10.6992 15.2056 10.5431 15.2929C10.517 15.3811 10.4917 15.4693 10.4674 15.5575C10.769 15.3987 12.1565 14.6579 14.0356 13.7335C15.5818 12.9736 17.0248 12.2518 17.7006 11.9158C17.6244 11.8771 17.5487 11.8406 17.4725 11.8052Z" fill="#26282B"></path><path d="M15.0754 11.2388C15.0754 11.2388 13.7631 10.616 12.4761 11.133C11.2892 11.6092 11.1453 12.2812 10.287 12.3744C9.42868 12.4675 9.28687 12.113 9.28687 12.113C9.28687 12.113 9.31756 12.8067 10.1034 13.0782C10.5796 13.2417 10.7257 13.1157 10.4912 13.2168C10.266 13.3028 10.0188 13.3127 9.78746 13.2449C9.52658 13.1681 9.78375 13.5534 10.9193 13.7566C12.0549 13.9598 14.795 13.2972 15.0754 11.2388Z" fill="#EEEEEF"></path><path d="M14.8092 11.1357C14.8225 11.3834 14.6299 11.8618 14.1769 12.2999C12.8413 13.5916 10.9802 13.8493 9.70331 13.281C9.7066 13.2868 9.7105 13.2923 9.71495 13.2974L9.72236 13.3064C9.72736 13.3123 9.73265 13.3179 9.73823 13.3233C9.7467 13.3313 9.75623 13.3397 9.76681 13.3482L9.7885 13.3646L9.81761 13.3852C9.82502 13.39 9.83243 13.3953 9.84089 13.4C9.85783 13.4112 9.87635 13.4223 9.89698 13.4334L9.91074 13.4408C9.93244 13.453 9.95678 13.4651 9.98218 13.4773L10.0076 13.4895C10.033 13.5011 10.0605 13.5133 10.0891 13.5249L10.1055 13.5318C10.1404 13.5461 10.178 13.5604 10.2177 13.5747L10.2446 13.5842C10.2785 13.5958 10.314 13.6075 10.3505 13.6191L10.3806 13.6281C10.4267 13.6424 10.4754 13.6556 10.5267 13.6694L10.5531 13.6757C10.5971 13.6869 10.6431 13.698 10.6907 13.7085L10.7368 13.7186C10.795 13.7308 10.8548 13.7429 10.9183 13.7546C12.0539 13.9573 14.7939 13.2974 15.0744 11.2389C15.0754 11.2389 14.9754 11.1929 14.8092 11.1357Z" fill="#BEBFC0"></path><path d="M18.3287 26.8721L17.3693 22.9785C16.1163 23.9114 15.1309 24.3485 15.1309 24.3485C14.2039 23.9633 13.0963 23.1092 13.0963 23.1092L12.0078 26.9403C14.0847 27.4691 16.2637 27.4456 18.3287 26.8721Z" fill="white"></path><path d="M18.1134 26.9302L17.7546 25.4348L16.9709 26.4651L15.131 24.4077L13.2027 26.6302L12.6122 25.9502L12.355 27.0234C14.2548 27.4485 16.2283 27.4166 18.1134 26.9302Z" fill="#DBDAD7"></path><path d="M16.5047 27.2335C16.1078 26.6303 15.7353 25.9953 15.7353 25.9953C16.0792 25.7138 16.1544 25.5254 16.1544 25.5254L15.6252 24.9486C15.1929 24.7248 14.6928 24.9126 14.6928 24.9126L14.2473 25.4259C14.406 25.8884 14.5674 25.9747 14.5674 25.9747C14.4986 26.2181 14.1605 26.7181 13.7991 27.2557C14.6988 27.3487 15.6061 27.3413 16.5042 27.2335H16.5047Z" fill="#0056A6"></path><path d="M11.1506 21.0151C10.6135 21.0681 10.5082 21.8533 10.3039 22.2994C10.151 22.6296 8.69259 22.9529 8.69259 22.9529C7.82899 23.1942 7.05588 23.4371 6.36108 23.6843C8.13271 25.4835 10.4195 26.688 12.9053 27.1312C13.1672 25.6162 13.2873 24.4568 13.3186 23.7234C13.3688 22.5143 11.1506 21.0151 11.1506 21.0151Z" fill="#0E4E97"></path><path d="M19.7659 22.2994C19.559 21.8533 19.4537 21.0659 18.9193 21.0151C18.9193 21.0151 16.7015 22.5143 16.7534 23.7234C16.7851 24.4574 16.9053 25.6194 17.1677 27.1376C19.663 26.7009 21.9601 25.4973 23.7394 23.6943C23.0378 23.444 22.2546 23.1974 21.3794 22.9535C21.3783 22.9529 19.9189 22.6296 19.7659 22.2994Z" fill="#0E4E97"></path><path d="M10.5881 25.0755C10.5881 25.0755 10.5351 25.3369 10.7875 25.2607C11.04 25.1845 11.3755 24.4696 12.0724 23.8383C12.7693 23.207 13.2154 23.5081 13.2154 23.5081C13.2154 23.5081 13.2371 22.8551 12.7687 22.7027C12.3004 22.5503 12.0808 22.3106 11.6802 22.953C11.2797 23.5954 10.5881 25.0755 10.5881 25.0755Z" fill="#00386B"></path><path d="M19.4791 25.0755C19.4791 25.0755 19.5321 25.3369 19.2796 25.2607C19.0272 25.1845 18.6917 24.4696 17.9953 23.8383C17.299 23.207 16.8523 23.5081 16.8523 23.5081C16.8523 23.5081 16.8306 22.8551 17.2984 22.7027C17.7662 22.5503 17.9863 22.3106 18.3869 22.953C18.7875 23.5954 19.4791 25.0755 19.4791 25.0755Z" fill="#00386B"></path><path d="M13.0175 27.1506C13.3027 25.2986 13.3768 23.8979 13.3064 23.4825C13.1958 22.83 12.7243 22.3871 12.2809 22.3871C11.8374 22.3871 11.4088 23.0845 11.1252 23.7068C10.8416 24.3291 10.7516 24.7488 10.668 24.7244C10.5844 24.7001 10.2325 23.6634 10.251 22.9851C10.2706 22.241 10.414 22.0955 10.3066 22.186C10.1992 22.2765 10.1023 22.531 10.1023 22.531C9.8843 23.8047 10.4431 25.0012 10.6135 25.2197C10.7839 25.4383 10.8733 25.0948 11.1363 24.4471C11.4411 23.6957 11.839 22.567 12.4317 22.6511C13.0085 22.7326 13.1196 23.5507 13.1196 23.5507L13.1418 24.2598C13.1582 24.7964 13.0768 25.7907 12.8201 27.1205L12.9053 27.1363L13.0175 27.1506Z" fill="#F9BF13"></path><path d="M16.928 24.2549L16.9497 23.5458C16.9497 23.5458 17.0592 22.7298 17.6376 22.6462C18.2297 22.5621 18.6282 23.6908 18.933 24.4422C19.1976 25.0899 19.2849 25.4339 19.4553 25.2148C19.6257 24.9957 20.1845 23.7998 19.967 22.5261C19.967 22.5261 19.8702 22.2711 19.7627 22.1811C19.6553 22.0911 19.7982 22.234 19.8183 22.9801C19.8363 23.6585 19.4844 24.6951 19.4008 24.7195C19.3172 24.7438 19.2262 24.3242 18.9441 23.7067C18.6621 23.0891 18.2409 22.3896 17.7905 22.3896C17.3402 22.3896 16.8756 22.8325 16.7645 23.485C16.6941 23.9003 16.7687 25.3037 17.0545 27.1589L17.1672 27.1404L17.2529 27.1245C16.9931 25.7889 16.9111 24.7925 16.928 24.2549Z" fill="#F9BF13"></path><path d="M15.041 2.78543C21.7868 2.78543 27.2557 8.25382 27.2557 14.9996C27.2557 21.7454 21.7868 27.2143 15.041 27.2143C8.2952 27.2143 2.8268 21.7486 2.8268 14.9996C2.8268 8.25065 8.2952 2.78543 15.041 2.78543ZM15.041 1.39214C12.3496 1.39213 9.7186 2.19022 7.48076 3.68549C5.24293 5.18076 3.49874 7.30604 2.46878 9.79258C1.43882 12.2791 1.16933 15.0152 1.69441 17.6549C2.21948 20.2947 3.51552 22.7194 5.41865 24.6225C6.68228 25.8861 8.18242 26.8885 9.83342 27.5723C11.4844 28.2562 13.254 28.6082 15.041 28.6082C16.828 28.6082 18.5976 28.2562 20.2486 27.5723C21.8996 26.8885 23.3997 25.8861 24.6634 24.6225C25.927 23.3589 26.9293 21.8587 27.6132 20.2077C28.2971 18.5567 28.6491 16.7872 28.6491 15.0001C28.6491 13.2131 28.2971 11.4436 27.6132 9.79258C26.9293 8.14157 25.927 6.64143 24.6634 5.37781C23.4027 4.11024 21.9031 3.1053 20.2514 2.42116C18.5997 1.73702 16.8288 1.38726 15.041 1.39214Z" fill="#0E4E97"></path></svg>