<svg fill="none" height="25" viewBox="0 0 166 25" width="166" xmlns="http://www.w3.org/2000/svg"><g clip-path="url(#clip0_9285_11275)"><path d="M102.676 4.94209H100.633C98.5785 4.94209 97.7357 3.97155 97.7357 3.97155L97.3022 0.333008C98.2917 0.995726 99.4529 1.35917 100.645 1.37944C101.625 1.37944 102.307 1.37944 102.307 1.37944L102.676 4.94209Z" fill="#0E4E97"></path><path d="M13.2951 8.12535C13.2951 12.2631 10.7064 14.1563 6.95375 14.1563C3.11682 14.1563 0.5 12.2631 0.5 8.12535C0.5 3.98756 3.08872 2.13433 6.95375 2.13433C10.7064 2.12235 13.2951 4.01551 13.2951 8.12535ZM20.8405 20.6665V23.9336H3.53824V15.71L7.06613 17.2077V20.6665H20.8405ZM9.83947 8.12535C9.83947 6.31606 8.87221 4.88621 6.95375 4.88621C5.03528 4.88621 3.95163 6.32405 3.95163 8.12535C3.95163 9.92665 5.03528 11.3924 6.95375 11.3924C8.87221 11.3924 9.83947 9.96659 9.83947 8.12535ZM20.8405 1.4873V17.679H17.4331V1.4873H20.8405Z" fill="#0E4E97"></path><path d="M42.8708 1.4873V23.9336H39.6158V12.9781H35.819C35.506 18.0105 33.5032 20.1313 29.5258 20.1313C25.1511 20.1313 23.3329 17.4474 23.3329 11.4484C23.3329 5.44936 25.2875 2.72944 29.6623 2.72944C33.6156 2.72944 35.4377 4.85825 35.819 9.71097H39.6278V1.4873H42.8708ZM32.4115 11.4204C32.4115 8.357 31.8938 5.74891 29.6623 5.74891C27.4308 5.74891 26.7765 8.357 26.7765 11.4484C26.7765 14.5397 27.3906 17.0679 29.6342 17.0679C31.8777 17.0679 32.4115 14.5357 32.4115 11.4204Z" fill="#0E4E97"></path><path d="M67.3212 19.2603V22.5274H45.608V19.2603H49.4289V12.4705L52.8323 12.0711V19.2603H55.4853V12.4705L58.8607 12.0711V19.2603H60.9798C61.9109 16.121 62.0795 11.1924 62.0795 10.3497V5.52491H48.1927L47.1412 2.25781H65.6355V8.5364C65.6355 10.4775 65.495 15.8135 64.4796 19.2603H67.3212Z" fill="#0E4E97"></path><path d="M116.338 1.4873V24.333H113.075V12.9901H110.647V23.9336H107.412V1.4873H110.647V9.72295H113.075V1.4873H116.338Z" fill="#0E4E97"></path><path d="M128.487 5.09389C128.487 6.9591 130.494 10.4019 134.227 11.1967L132.421 13.9925C130.446 13.3535 127.693 11.2407 126.545 9.5552C125.224 11.7806 123.227 13.5304 120.842 14.5517L118.807 11.9436C122.848 10.7175 124.49 7.15081 124.49 5.07792H120.396L119.493 1.98656H133.203V5.07792L128.487 5.09389ZM140.07 16.0135V23.7299H136.731V19.2806H121.708V16.0135H140.07ZM140.07 1.4873V14.5916H136.731V9.51926H133.179V6.46783H136.731V1.4873H140.07Z" fill="#0E4E97"></path><path d="M165.5 6.26426V9.51938H162.775V17.8069H159.492V13.114C157.246 13.5697 154.961 13.8065 152.669 13.8209H143.317V2.27824H155.823V5.52537H146.994V10.5578H152.753C154.387 10.5578 159.484 9.9747 159.484 9.3077V1.61523H162.767V6.26426H165.5ZM162.791 20.6667V23.9338H145.914V15.5104L149.502 17.0081V20.6746L162.791 20.6667Z" fill="#0E4E97"></path><path d="M100.437 8.57617C97.531 8.57617 95.0225 10.3096 95.0225 14.659C95.0225 19.2162 97.531 20.7379 100.437 20.7379C103.343 20.7379 105.847 19.0525 105.847 14.659C105.827 10.3775 103.318 8.57617 100.437 8.57617ZM102.363 14.659C102.363 17.5108 101.26 17.994 100.437 17.994C99.5377 17.994 98.5063 17.5108 98.5063 14.659C98.5063 12.011 99.4454 11.3201 100.437 11.3201C101.304 11.3201 102.343 11.9351 102.343 14.659H102.363Z" fill="#0E4E97"></path><path d="M105.979 7.6663H94.6212L93.397 4.94238H105.979V7.6663Z" fill="#0E4E97"></path><path d="M91.8599 14.3124V17.5795H82.2274V23.898H78.6955V17.5635H69.063V14.3124H91.8599ZM82.9739 5.17807C83.4114 6.77567 86.8028 9.27592 91.4425 9.43967L90.0698 12.6628C85.655 12.0038 81.6013 9.7592 80.4374 8.26943C79.2333 9.80712 75.1195 12.1596 70.9173 12.6828L69.5126 9.52754C73.9515 9.52754 77.3991 6.92744 78.0132 5.19804H71.6598L70.6082 1.96289H90.3428V5.1581L82.9739 5.17807Z" fill="#0E4E97"></path></g><defs><clipPath id="clip0_9285_11275"><rect fill="white" height="24" transform="translate(0.5 0.333008)" width="165"></rect></clipPath></defs></svg>